<?xml version="1.0" standalone="no"?>
<!DOCTYPE svg PUBLIC "-//W3C//DTD SVG 20010904//EN"
 "http://www.w3.org/TR/2001/REC-SVG-20010904/DTD/svg10.dtd">
<svg version="1.0" xmlns="http://www.w3.org/2000/svg"
 width="630.000000pt" height="630.000000pt" viewBox="0 0 630.000000 630.000000"
 preserveAspectRatio="xMidYMid meet">
<metadata>
Created by potrace 1.16, written by Peter Selinger 2001-2019
</metadata>
<g transform="translate(0.000000,630.000000) scale(0.100000,-0.100000)"
fill="#000000" stroke="none">
<path d="M0 3150 l0 -3150 3150 0 3150 0 0 3150 0 3150 -3150 0 -3150 0 0
-3150z m3981 2550 c19 -11 19 -21 15 -388 -3 -221 -1 -369 4 -357 7 16 9 17 9
3 2 -33 -18 -27 -66 19 -127 125 -171 265 -144 454 17 115 46 186 96 237 45
45 55 48 86 32z m-1557 -114 c29 -62 56 -185 56 -259 0 -106 -37 -227 -90
-294 l-20 -26 0 328 c0 359 1 363 54 251z m1740 -174 c8 -189 19 -327 24 -290
2 15 9 112 15 216 l12 190 128 -81 127 -81 0 -379 c0 -300 -3 -377 -12 -371
-131 79 -403 262 -422 283 -15 17 -16 28 -7 96 6 42 11 209 11 371 l0 294 59
-46 59 -46 6 -156z m-2119 56 c3 -18 4 -188 3 -378 l-3 -345 -90 -53 c-101
-61 -251 -180 -337 -267 l-58 -58 0 406 0 406 56 43 c112 85 117 89 126 75 5
-8 8 -7 8 5 0 21 211 162 221 147 3 -6 4 -22 2 -37 -3 -26 -3 -27 7 -4 5 13 8
28 5 32 -3 5 -2 11 2 13 5 3 9 -52 11 -121 2 -70 5 -129 8 -131 2 -2 4 61 4
141 0 79 3 148 7 151 13 14 22 6 28 -25z m1198 3 c57 -26 94 -62 117 -113 48
-106 0 -247 -103 -300 -53 -27 -147 -29 -194 -4 l-33 17 0 198 0 198 33 11
c53 17 134 14 180 -7z m-243 -190 c0 -88 -4 -162 -9 -165 -4 -3 -20 16 -35 43
-37 69 -37 163 1 232 14 27 30 49 35 49 4 0 8 -72 8 -159z m1576 18 c32 -23
78 -57 102 -77 l42 -34 1 -102 c0 -55 4 -123 9 -151 6 -37 8 -12 7 92 -1 77 1
139 6 136 4 -2 8 -61 9 -131 l2 -127 6 115 c4 84 7 41 8 -162 1 -178 6 -278
12 -278 6 0 10 -48 10 -125 0 -69 -2 -125 -5 -125 -3 0 -55 48 -116 107 -60
59 -121 114 -134 121 l-25 13 -1 342 c0 188 -2 361 -5 385 -3 23 -2 42 3 42 6
0 36 -19 69 -41z m-3041 -351 c-3 -112 -7 -296 -9 -411 l-4 -207 -71 -85 c-40
-47 -73 -85 -74 -85 -1 0 -1 177 1 392 1 216 2 407 2 424 0 24 14 45 70 102
38 40 74 72 79 72 7 0 9 -69 6 -202z m3539 -556 c-4 -246 -8 -448 -9 -450 -1
-1 -24 32 -51 75 -26 43 -72 110 -101 148 l-52 71 -6 419 -5 420 115 -118 116
-117 -7 -448z m-1779 368 c70 -33 117 -81 155 -157 20 -39 24 -63 24 -133 0
-73 -4 -93 -27 -142 -32 -66 -110 -141 -175 -169 -49 -21 -182 -26 -227 -9
l-25 10 0 304 1 305 27 10 c15 5 62 10 106 10 67 1 87 -3 141 -29z m-305 -296
c0 -187 -3 -283 -10 -279 -5 3 -11 41 -12 83 l-2 77 -3 -74 c-4 -72 -4 -73
-23 -56 -14 13 -20 31 -20 60 0 23 -3 84 -7 136 l-8 94 -5 -105 c-3 -58 -2
-112 2 -121 5 -10 2 -16 -8 -16 -22 0 -63 95 -70 165 -5 46 -2 80 11 129 16
58 27 76 80 130 33 35 64 63 68 63 4 0 7 -129 7 -286z m2237 174 c38 -57 86
-134 107 -171 36 -66 37 -70 32 -145 -3 -42 -6 -369 -7 -727 -1 -432 -5 -618
-10 -555 -22 244 -90 493 -204 745 l-22 50 9 430 c8 397 12 475 22 475 2 0 35
-46 73 -102z m-379 -250 c0 -71 -3 -128 -6 -128 -4 0 -16 13 -27 29 -18 26
-19 39 -13 142 3 63 7 143 9 179 l2 65 7 -55 7 -55 3 70 3 70 8 -95 c4 -52 8
-152 7 -222z m-3784 206 c3 -9 4 -20 0 -25 -3 -5 -1 -9 3 -9 5 0 10 -30 11
-67 4 -85 12 -96 12 -17 1 34 6 67 14 77 13 17 14 17 13 -5 -1 -38 35 -171 43
-156 6 10 19 123 20 176 0 6 4 12 9 12 9 0 19 -73 30 -215 l7 -90 4 95 3 95 7
-110 c4 -60 8 -171 9 -246 l1 -136 -68 -134 c-40 -79 -89 -196 -118 -284 l-49
-150 -6 350 c-15 820 -16 775 12 817 27 42 34 46 43 22z m2884 -89 c36 -36 68
-65 70 -65 1 0 15 -12 30 -26 26 -24 97 -81 242 -193 36 -28 89 -68 117 -91
29 -22 55 -50 58 -63 3 -12 4 -201 3 -420 l-3 -399 -35 49 c-19 26 -33 52 -32
56 1 4 -5 10 -13 13 -8 4 -15 14 -15 23 0 14 2 14 10 1 8 -13 10 -12 10 3 0 9
-4 17 -10 17 -6 0 -10 58 -11 153 -1 83 -5 231 -8 327 -7 163 -8 152 -9 -147
-1 -177 -6 -324 -11 -327 -4 -3 -17 4 -27 16 -11 11 -104 89 -209 173 -185
149 -294 249 -336 310 -11 17 -36 61 -55 100 -31 64 -34 77 -34 163 0 153 42
275 122 352 22 22 49 40 60 40 10 0 49 -29 86 -65z m-1477 8 c83 -75 123 -199
117 -364 -3 -98 -6 -111 -40 -180 -34 -66 -150 -210 -170 -209 -5 0 -8 175 -8
389 0 302 3 390 13 394 28 12 49 5 88 -30z m-340 -493 c-6 -147 -11 -312 -11
-367 0 -93 -8 -123 -32 -123 -4 0 -8 168 -8 374 l0 374 28 20 c23 18 28 18 30
5 2 -8 -1 -135 -7 -283z m3350 162 c67 -160 121 -333 154 -497 l35 -171 0
-373 c0 -337 -2 -383 -21 -474 -47 -236 -112 -430 -206 -621 -94 -192 -229
-406 -256 -406 -6 0 -2 7 9 16 18 15 18 15 -3 5 -12 -6 -20 -18 -18 -28 3 -20
-13 -45 -25 -38 -4 3 -11 -2 -14 -11 -4 -10 -2 -13 7 -8 6 4 3 -3 -8 -17 -11
-13 -21 -26 -23 -29 -1 -2 -2 63 0 145 l2 150 47 101 c115 246 194 598 201
894 l2 85 6 -105 c5 -94 6 -86 9 85 1 105 4 199 6 210 1 11 6 169 9 350 3 182
10 413 16 515 5 102 10 215 12 252 3 83 14 77 59 -30z m-3431 -316 l0 -383
-59 -55 c-55 -52 -103 -90 -73 -57 14 16 16 33 2 24 -12 -8 -13 5 0 25 5 8 5
19 1 25 -5 5 -11 164 -14 352 l-5 341 27 25 c33 32 103 85 114 86 4 1 7 -172
7 -383z m-179 220 c-5 -6 -12 -190 -15 -408 l-7 -397 -49 -78 c-28 -43 -60
-93 -72 -112 -14 -22 -24 -29 -26 -21 -3 8 0 16 7 18 6 2 11 8 11 13 0 6 -4 7
-10 4 -5 -3 -10 -2 -10 4 0 5 5 13 10 16 6 3 10 1 10 -6 0 -10 3 -10 12 -1 16
16 1 29 -20 16 -12 -8 -17 -25 -17 -53 0 -22 -4 -41 -8 -41 -11 0 -4 124 8
132 6 5 5 8 -2 8 -10 0 -14 37 -15 148 -1 86 -3 115 -5 68 -2 -47 -9 -84 -17
-91 -11 -11 -15 15 -25 143 -6 87 -13 194 -15 240 -5 130 -16 108 -16 -34 0
-71 -3 -298 -6 -504 -5 -355 -7 -382 -32 -505 -24 -117 -27 -151 -27 -345 0
-167 4 -234 18 -300 15 -69 18 -126 16 -298 -2 -116 -4 -212 -7 -212 -16 0
-83 95 -85 122 -1 10 -5 18 -10 18 -4 0 -5 5 -2 10 3 6 1 10 -4 10 -6 0 -11 9
-11 21 0 11 -4 18 -8 15 -5 -3 -26 27 -47 67 l-38 71 6 791 c6 771 7 791 28
845 21 56 65 138 106 199 l23 34 0 -64 c0 -35 -5 -342 -11 -683 -5 -340 -8
-620 -6 -622 2 -2 9 139 16 314 7 174 18 418 26 542 8 124 16 308 19 410 l4
184 28 23 c16 13 25 23 20 23 -7 0 5 18 64 95 40 52 172 182 185 182 9 0 11
-4 6 -11z m2843 -301 c88 -132 122 -188 132 -220 6 -18 11 -239 12 -550 1
-286 5 -698 8 -915 6 -368 5 -398 -11 -430 -16 -31 -19 -33 -25 -15 -4 11 -4
27 0 35 8 17 2 42 -8 36 -4 -2 -8 71 -10 162 -4 258 -22 368 -28 170 -7 -283
-16 -506 -20 -525 -6 -29 -140 -207 -202 -266 l-50 -49 -1 104 c-1 100 0 105
32 158 87 145 163 348 199 530 29 151 32 435 4 575 -29 151 -79 301 -135 410
l-26 50 -5 459 -5 458 43 -48 c23 -27 67 -85 96 -129z m-3974 104 c0 -17 4
-28 10 -24 6 3 10 5 10 3 0 -2 7 -241 15 -533 8 -291 19 -667 26 -835 6 -168
10 -316 8 -330 -3 -19 -11 -7 -36 55 -62 154 -97 287 -140 535 -19 111 -11
730 11 825 8 33 15 49 15 35 1 -14 4 -135 7 -270 4 -135 8 -247 10 -249 2 -2
4 135 5 305 0 363 0 362 25 448 20 71 34 85 34 35z m2572 -344 c10 -4 12 -60
10 -293 -2 -158 -5 -288 -7 -290 -2 -2 -12 2 -24 9 -16 11 -18 16 -8 28 9 11
9 15 0 18 -8 3 -14 24 -14 51 -1 31 -3 36 -6 17 -11 -95 -15 -115 -24 -115 -5
0 -10 39 -11 88 l-2 87 -3 -87 -4 -88 -94 0 c-51 0 -100 -3 -109 -6 -14 -6
-16 22 -16 264 0 152 4 282 10 296 l10 26 139 0 c77 0 145 -2 153 -5z m-422
-307 l0 -293 -83 -28 c-92 -32 -182 -75 -281 -136 -38 -22 -73 -38 -79 -34 -5
3 -7 2 -4 -4 3 -5 -9 -25 -28 -43 l-35 -34 -2 290 c-1 159 -2 303 -3 319 0 17
3 35 8 42 16 23 196 118 280 149 53 20 198 62 215 63 9 1 12 -64 12 -291z
m567 278 c319 -68 640 -285 823 -558 l63 -93 -7 -185 c-3 -102 -7 -302 -8
-445 l-2 -260 -6 190 -6 190 -4 -165 c-2 -91 -5 -144 -7 -117 -6 75 -23 55
-23 -28 0 -41 -3 -75 -7 -75 -5 0 -7 27 -6 60 1 33 -2 60 -7 60 -5 0 -10 23
-12 52 -2 30 -8 53 -16 56 -9 3 -10 -3 -1 -25 5 -15 6 -23 1 -18 -5 6 -15 28
-22 50 -17 56 -117 259 -143 292 -62 75 -200 212 -262 258 -39 29 -107 71
-152 94 -45 22 -85 46 -89 52 -5 9 -2 10 10 6 12 -5 15 -3 10 5 -5 7 -7 51 -5
99 1 48 -1 89 -6 92 -4 3 -9 -23 -10 -57 -4 -94 -14 -151 -23 -136 -4 7 -12
10 -18 6 -6 -3 -17 -3 -26 0 -14 5 -16 35 -18 218 l-1 211 -7 -192 c-3 -106
-9 -196 -13 -199 -4 -4 -7 0 -7 9 0 10 -4 17 -10 17 -6 0 -10 94 -10 262 0
144 -2 259 -4 257 -3 -2 -8 -74 -11 -159 -4 -85 -9 -157 -11 -159 -2 -2 -4 38
-5 90 0 52 -4 117 -9 144 -7 47 -8 44 -10 -40 -2 -57 -5 -77 -9 -55 -4 30 -6
25 -11 -30 -5 -50 -7 -34 -8 72 -1 75 -5 143 -8 152 -8 21 21 21 113 2z m1437
-58 c-3 -5 -1 -8 4 -8 14 0 41 -78 36 -103 -3 -12 -8 -239 -11 -505 -3 -265
-7 -481 -8 -480 -9 10 -15 219 -17 578 -1 228 -4 368 -7 310 l-6 -105 -7 115
c-5 63 -8 147 -8 185 1 65 2 68 14 45 8 -14 12 -28 10 -32z m-2555 -654 l1
-180 -29 -28 c-27 -26 -29 -26 -34 -7 -6 23 0 468 8 585 4 59 10 82 23 92 16
12 17 2 23 -134 4 -81 7 -228 8 -328z m-1061 219 c4 -252 14 -611 18 -633 2
-14 6 -113 9 -220 6 -185 5 -193 -10 -160 -46 100 -95 401 -95 585 0 177 48
515 74 515 1 0 3 -39 4 -87z m763 -488 c-6 -220 -12 -506 -12 -635 -1 -129 -4
-246 -8 -260 -4 -14 -11 117 -14 290 -4 173 -12 392 -17 485 -5 94 -12 233
-15 310 -3 76 -8 141 -10 144 -3 2 -5 -5 -5 -17 0 -12 -4 -22 -10 -22 -5 0 -6
8 -3 18 10 27 63 115 82 136 15 18 16 17 19 -15 2 -19 -1 -214 -7 -434z m1141
-252 c-2 -126 -4 -229 -5 -229 -1 -1 -41 -4 -89 -7 l-88 -5 0 228 c0 173 3
230 13 233 6 3 48 6 92 6 l80 1 -3 -227z m-292 -53 l0 -240 -52 -26 c-31 -16
-86 -61 -133 -108 -98 -99 -159 -214 -181 -340 -8 -44 -16 -82 -19 -84 -4 -5
-8 66 -9 156 0 12 -3 22 -6 22 -3 0 -6 24 -6 53 -1 28 -5 72 -10 97 -8 41 -10
35 -15 -65 -3 -63 -5 -10 -3 125 1 175 -1 229 -9 210 -12 -27 -12 -49 -15
-550 -2 -341 -3 -345 -21 -315 -17 28 -19 65 -25 465 -6 416 -5 436 13 466 10
17 26 31 35 31 18 0 21 -13 6 -22 -5 -3 -10 -11 -10 -16 0 -6 5 -7 10 -4 6 3
10 2 10 -4 0 -5 -5 -12 -10 -14 -6 -3 -5 -4 2 -3 8 2 13 17 13 37 0 21 -5 33
-13 31 -6 -1 -12 2 -12 8 0 5 5 10 10 10 6 0 10 6 10 14 0 23 163 180 230 221
71 43 165 84 193 85 16 0 17 -18 17 -240z m755 134 c87 -57 224 -208 273 -301
79 -150 82 -167 82 -423 0 -250 -3 -267 -70 -400 -35 -71 -119 -186 -175 -240
l-35 -34 0 91 c0 72 5 106 27 169 23 68 27 96 27 194 0 101 -3 124 -28 195
-32 90 -65 143 -143 229 l-53 59 5 186 c6 227 13 311 27 311 5 0 34 -16 63
-36z m-2506 -435 c23 -53 71 -145 107 -205 l66 -109 4 -112 c2 -62 1 -113 -4
-113 -19 0 -134 134 -234 275 l-58 80 1 245 0 245 38 -105 c20 -58 56 -148 80
-201z m1391 -638 c0 -21 23 -85 51 -141 17 -34 22 -64 23 -123 1 -42 0 -77 -1
-77 -1 0 -18 14 -38 31 -25 22 -35 39 -35 60 0 16 -5 29 -11 29 -8 0 -7 6 2
17 11 13 11 15 1 9 -11 -6 -13 13 -11 101 1 60 -1 116 -6 124 -8 12 -6 12 8 0
9 -7 17 -21 17 -30z m2230 -64 l-5 -62 -114 -82 c-63 -46 -118 -83 -122 -83
-4 0 -9 21 -11 46 -3 45 -3 46 67 109 38 35 95 88 125 119 63 64 69 60 60 -47z
m-764 -212 c-5 -24 -19 -38 -63 -65 -32 -19 -61 -34 -65 -33 -4 2 -8 -1 -8 -7
0 -8 -77 -53 -132 -78 -5 -2 -8 12 -8 30 0 31 6 38 67 79 37 24 71 43 75 41 4
-1 8 4 8 10 0 7 28 41 63 76 l62 63 3 -43 c2 -23 1 -56 -2 -73z m-307 3 c-3
-70 -13 -87 -71 -124 -55 -35 -69 -32 -62 13 4 25 24 59 62 104 32 37 61 68
65 68 4 1 7 -27 6 -61z m289 -173 c-7 -6 -33 -20 -58 -29 -25 -10 -54 -22 -65
-27 -11 -5 -46 -18 -77 -28 l-58 -20 0 25 c0 16 8 27 23 33 76 30 119 50 177
82 l65 37 3 -31 c2 -16 -2 -35 -10 -42z"/>
</g>
</svg>
