<?xml version="1.0" standalone="no"?>
<!DOCTYPE svg PUBLIC "-//W3C//DTD SVG 20010904//EN"
 "http://www.w3.org/TR/2001/REC-SVG-20010904/DTD/svg10.dtd">
<svg version="1.0" xmlns="http://www.w3.org/2000/svg"
 width="633.000000pt" height="633.000000pt" viewBox="0 0 633.000000 633.000000"
 preserveAspectRatio="xMidYMid meet">
<metadata>
Created by potrace 1.16, written by Peter Selinger 2001-2019
</metadata>
<g transform="translate(0.000000,633.000000) scale(0.100000,-0.100000)"
fill="#000000" stroke="none">
<path d="M17 4243 c-4 -1143 -7 -2560 -7 -3149 l0 -1071 2072 -6 c1139 -4
2556 -7 3148 -7 l1077 0 7 3146 c4 1731 5 3148 4 3149 -2 1 -1419 5 -3149 9
l-3146 7 -6 -2078z m6231 1992 c1 -1 -1 -1387 -4 -3079 l-7 -3076 -1016 0
c-559 0 -1944 3 -3078 7 l-2063 6 0 1007 c0 554 3 1939 7 3079 l6 2072 3076
-7 c1692 -4 3077 -8 3079 -9z"/>
<path d="M3857 5760 c-41 -36 -83 -125 -103 -222 -21 -96 -14 -339 10 -416 20
-62 127 -207 171 -231 17 -9 34 -21 38 -28 10 -16 133 -108 222 -165 186 -120
217 -138 240 -138 18 0 25 -6 25 -18 0 -11 27 -41 63 -70 64 -53 210 -197 269
-267 45 -52 147 -196 188 -262 27 -45 36 -53 61 -53 28 0 29 -1 29 -54 0 -39
9 -73 31 -122 17 -38 35 -78 40 -89 61 -136 132 -422 154 -625 4 -36 12 -71
17 -77 7 -9 7 -17 0 -25 -5 -7 -12 -58 -15 -113 -11 -252 -107 -633 -203 -810
l-38 -70 0 -210 -1 -210 69 0 69 0 63 80 c211 267 365 586 447 925 51 208 52
221 52 670 0 453 0 453 -56 690 -40 169 -140 442 -175 481 -10 11 -29 19 -44
19 -27 0 -28 1 -32 73 -4 65 -9 81 -58 164 -29 50 -76 122 -104 160 -42 56
-57 69 -83 71 -32 3 -33 5 -33 47 0 42 -4 48 -111 159 l-111 116 -49 0 -49 0
0 39 c0 36 -6 44 -67 98 -90 79 -182 143 -205 143 -10 0 -18 4 -18 9 0 14
-265 181 -289 181 -11 0 -21 6 -21 14 0 15 -122 116 -139 116 -6 0 -21 11 -35
25 -23 23 -33 25 -105 25 -75 0 -83 -2 -114 -30z m143 -50 c16 -9 18 -20 16
-83 -2 -39 -4 -208 -5 -375 l-1 -302 -25 16 c-40 26 -133 161 -151 218 -24 78
-29 208 -10 294 20 94 62 187 98 217 32 27 49 30 78 15z m183 -267 c4 -75 7
-166 8 -202 l1 -66 14 50 c7 28 14 84 15 125 1 41 4 101 8 132 l6 57 128 -82
128 -82 -3 -367 c-2 -201 -6 -369 -9 -373 -9 -8 -240 139 -368 233 -72 54 -73
55 -67 91 3 20 9 187 13 372 l6 337 57 -45 57 -44 6 -136z m413 -135 c33 -24
80 -60 104 -80 42 -37 43 -39 42 -95 -1 -44 1 -53 8 -36 5 12 7 37 5 54 -3 24
-1 29 7 21 16 -16 16 -18 23 -307 6 -267 10 -325 23 -325 4 0 17 32 27 72 l20
72 6 -59 c3 -33 6 54 7 193 1 139 6 252 11 252 5 0 56 -49 113 -109 l104 -108
-3 -424 c-2 -233 -6 -435 -9 -448 -5 -21 -11 -16 -53 50 -48 75 -139 201 -182
253 -43 51 -252 252 -300 289 -15 11 -17 57 -23 395 -3 210 -2 382 2 382 5 0
35 -19 68 -42z m658 -677 c35 -53 78 -123 95 -156 l31 -60 -1 -715 c-1 -458
-5 -693 -10 -655 -19 128 -51 311 -59 340 -18 66 -83 262 -95 290 -7 17 -28
63 -46 103 l-32 72 7 258 c15 579 18 643 33 630 8 -6 43 -55 77 -107z m237
-429 c40 -89 114 -309 138 -412 55 -237 56 -243 56 -630 0 -384 -2 -405 -52
-610 -65 -271 -192 -560 -340 -780 -43 -64 -144 -196 -165 -215 -7 -7 -9 34
-5 141 6 149 6 150 42 220 88 165 182 524 202 771 3 35 9 60 14 57 5 -3 9 4 9
15 0 11 -4 23 -10 26 -13 8 -13 42 0 47 7 2 14 135 20 383 16 648 37 1068 52
1059 6 -4 23 -36 39 -72z"/>
<path d="M2265 5760 c-4 -6 -11 -144 -15 -308 -5 -163 -9 -301 -10 -307 0 -6
-21 -9 -50 -7 l-50 4 -1 136 c-1 76 -4 175 -7 222 l-7 85 -62 3 c-65 3 -103
-9 -103 -32 0 -7 -14 -16 -32 -20 -51 -10 -418 -262 -418 -287 0 -5 -6 -9 -13
-9 -8 0 -50 -38 -95 -84 l-82 -84 -1 -298 c0 -273 -2 -295 -15 -254 -7 25 -14
56 -14 71 0 38 -18 49 -81 49 -55 0 -58 1 -61 28 -3 26 -5 27 -74 30 l-71 3
-32 -49 -31 -49 7 -614 8 -614 63 -3 c70 -3 87 5 97 46 19 78 97 273 157 391
68 134 68 134 68 218 l0 83 59 0 59 0 76 88 c45 52 76 96 76 110 0 14 6 22 18
22 9 0 54 33 98 74 120 108 211 179 305 236 46 28 111 70 144 94 l60 42 3 125
3 124 39 -3 c33 -3 39 -8 42 -30 3 -26 6 -27 69 -30 l67 -3 31 47 c56 84 73
146 78 286 9 191 -20 332 -83 416 -14 17 -33 32 -43 32 -11 0 -21 7 -25 15 -4
11 -22 15 -75 15 -38 0 -73 -5 -76 -10z m194 -197 c65 -170 44 -392 -49 -510
l-20 -26 0 324 1 324 24 -29 c13 -16 33 -54 44 -83z m-394 -498 l0 -300 -91
-55 c-95 -57 -225 -158 -329 -254 -33 -30 -60 -54 -62 -53 -2 2 -5 752 -4 783
2 22 356 269 396 276 17 2 19 -2 17 -25 -2 -17 1 -26 7 -23 5 4 11 -2 13 -11
2 -10 7 10 11 44 5 34 13 63 20 66 18 6 23 -100 22 -448z m-519 -307 l-7 -412
-70 -83 c-39 -46 -73 -83 -75 -83 -2 0 -4 187 -4 416 l0 416 77 79 c42 44 79
79 81 79 3 0 2 -185 -2 -412z m-464 -165 c2 -30 7 -38 23 -38 15 0 24 -13 39
-53 21 -59 40 -63 44 -11 4 55 12 80 22 74 6 -3 10 -18 10 -33 0 -15 7 -49 16
-77 11 -33 19 -117 25 -251 l9 -202 -68 -133 c-60 -118 -138 -313 -157 -392
-4 -15 -11 -29 -15 -32 -4 -2 -9 244 -13 548 l-6 552 27 42 c15 24 30 43 34
43 4 0 8 -17 10 -37z"/>
<path d="M3008 5554 c-16 -8 -28 -19 -28 -24 0 -6 -9 -10 -20 -10 -13 0 -31
-16 -50 -47 -29 -46 -30 -49 -30 -180 0 -104 4 -141 16 -166 23 -45 44 -67 65
-67 11 0 19 -9 21 -22 6 -41 59 -57 191 -58 132 0 166 11 223 72 57 60 68 92
72 216 4 105 3 116 -22 166 -27 55 -64 89 -128 119 -49 23 -269 24 -310 1z
m257 -74 c146 -67 178 -243 66 -363 -59 -64 -163 -86 -245 -52 l-36 15 0 199
c0 195 0 198 23 209 38 18 143 14 192 -8z m-249 -107 c-3 -42 -6 -114 -6 -160
0 -92 -7 -97 -40 -33 -31 60 -28 170 5 227 39 65 49 56 41 -34z"/>
<path d="M3036 4869 c-22 -5 -47 -16 -56 -24 -9 -8 -23 -15 -31 -15 -26 0
-114 -86 -144 -141 -30 -53 -30 -56 -30 -209 0 -145 2 -158 25 -205 14 -27 35
-54 48 -60 12 -5 22 -15 22 -22 0 -12 60 -63 74 -63 4 0 20 -10 37 -22 28 -21
44 -23 167 -26 181 -5 223 9 315 107 72 77 92 123 103 242 14 155 -31 291
-120 364 -77 63 -127 79 -256 82 -63 1 -133 -2 -154 -8z m258 -88 c163 -72
236 -241 179 -414 -23 -72 -119 -170 -191 -197 -60 -23 -157 -26 -212 -7 l-34
12 3 300 c1 165 6 303 9 307 15 15 89 27 143 24 31 -2 77 -13 103 -25z m-284
-240 c0 -120 -3 -246 -6 -279 l-7 -61 -28 19 c-19 14 -29 33 -34 63 -7 38 -8
40 -16 18 -8 -19 -12 -21 -24 -11 -53 44 -69 247 -26 330 23 43 114 140 132
140 5 0 9 -98 9 -219z"/>
<path d="M3745 4598 c-93 -104 -119 -191 -119 -403 -1 -138 1 -155 24 -205 69
-157 148 -241 445 -472 61 -47 128 -104 150 -127 21 -23 46 -41 55 -41 8 0 21
-12 28 -27 7 -16 28 -49 47 -75 35 -47 36 -48 90 -48 l55 0 0 -86 c0 -81 3
-93 44 -183 82 -180 124 -342 141 -546 20 -234 -74 -587 -222 -835 -32 -54
-33 -57 -33 -177 l0 -123 -44 0 c-25 0 -48 -6 -55 -14 -8 -9 -11 -66 -9 -182
l3 -169 66 -3 c53 -2 74 1 103 19 20 11 36 25 36 30 0 5 9 9 21 9 23 0 75 34
192 123 73 56 77 62 77 98 l0 39 44 0 c25 0 48 6 55 14 8 9 11 61 9 162 l-3
149 -47 3 c-46 3 -48 5 -48 33 0 26 3 29 35 29 64 0 65 9 65 429 l0 370 23 3
c22 3 22 6 25 156 l3 152 47 0 c27 0 53 5 60 12 9 9 12 71 12 217 0 190 -6
253 -30 306 -5 11 -10 29 -12 40 -2 13 -12 21 -31 23 -26 3 -27 5 -27 71 0 78
-21 148 -56 186 -13 14 -24 36 -24 49 0 35 -141 262 -227 364 -35 40 -51 52
-73 52 -25 0 -29 4 -32 33 -2 27 -8 33 -30 35 -23 3 -28 8 -28 32 0 23 -16 42
-90 107 -50 43 -117 96 -149 118 -72 49 -214 169 -292 248 l-57 57 -85 0 -85
0 -47 -52z m213 -76 c73 -73 217 -195 292 -247 52 -35 103 -77 202 -165 l29
-25 -3 -410 -3 -410 -43 63 -43 62 0 98 c0 53 -4 113 -8 132 -6 27 -9 9 -16
-82 -4 -65 -10 -118 -14 -118 -4 0 -25 18 -46 41 -22 23 -89 80 -150 127 -294
229 -368 308 -435 462 -42 96 -27 288 30 399 10 20 37 57 60 84 57 64 77 63
148 -11z m690 -619 c41 -50 175 -252 208 -313 17 -33 18 -85 22 -953 3 -707 1
-925 -8 -948 -15 -35 -30 -38 -31 -6 0 12 -3 33 -5 47 -2 14 -7 89 -10 168 -4
86 -10 140 -16 134 -10 -10 -27 -251 -28 -392 0 -105 -3 -113 -88 -225 -55
-71 -152 -175 -164 -175 -4 0 -8 44 -8 98 0 92 2 100 33 152 158 264 238 583
224 895 -10 230 -52 405 -143 606 l-44 97 2 431 c2 237 6 431 10 431 3 0 24
-21 46 -47z m286 -480 c10 -30 11 -95 5 -313 -4 -151 -9 -360 -10 -465 -2
-170 -3 -180 -9 -95 -4 52 -8 228 -9 390 -1 167 -5 300 -10 305 -12 12 -26
217 -17 241 6 16 8 16 22 -4 8 -12 21 -38 28 -59z m-164 -2166 l0 -73 -87 -66
c-104 -77 -149 -108 -157 -108 -3 0 -6 22 -6 48 l0 48 103 94 c56 52 108 103
115 112 24 33 32 19 32 -55z"/>
<path d="M2332 4618 c-9 -9 -12 -91 -12 -309 l0 -298 -32 -3 -33 -3 0 -175 0
-175 70 0 c69 0 70 0 73 28 3 22 8 27 32 27 22 0 43 16 98 75 126 135 152 204
152 401 0 208 -35 320 -127 404 -42 40 -43 40 -126 40 -51 0 -88 -5 -95 -12z
m156 -92 c76 -69 122 -198 122 -340 0 -81 -18 -152 -55 -219 -26 -46 -154
-191 -162 -184 -6 7 -3 758 3 768 12 20 56 7 92 -25z"/>
<path d="M2052 4370 c-18 -16 -38 -30 -43 -30 -19 0 -130 -92 -152 -126 -12
-19 -28 -34 -35 -34 -21 0 -134 -114 -198 -198 -32 -43 -71 -92 -86 -110 -19
-22 -28 -44 -28 -67 0 -30 -3 -35 -25 -35 -19 0 -32 -14 -67 -72 -23 -40 -57
-107 -75 -148 -32 -73 -33 -78 -33 -217 l0 -143 -45 0 c-54 0 -59 -8 -80 -117
-60 -306 -58 -683 5 -944 11 -46 18 -84 16 -86 -3 -3 -68 168 -101 265 -3 9
-24 12 -72 10 l-68 -3 -3 -305 -2 -305 57 -80 c128 -179 225 -285 260 -285 18
0 23 -6 23 -24 0 -30 64 -86 97 -86 17 0 23 -6 23 -23 0 -13 13 -36 29 -51 26
-25 34 -27 97 -24 l69 3 3 133 c2 122 1 136 -18 163 l-21 29 23 0 c47 0 48 8
48 286 0 209 -3 278 -17 336 -11 50 -17 121 -17 228 -1 130 4 177 26 290 17
84 30 187 34 273 l6 137 48 0 c46 0 49 2 87 53 72 95 113 167 113 196 0 47 10
61 42 61 40 0 147 90 155 131 4 22 11 29 28 29 12 0 27 6 33 13 11 13 30 424
35 727 l2 175 -70 3 c-66 3 -72 1 -103 -28z m103 -142 c-3 -57 -10 -229 -16
-383 -6 -154 -13 -283 -15 -287 -20 -32 -24 26 -24 363 l0 371 23 19 c12 10
25 18 29 19 4 0 6 -46 3 -102z m-92 -353 l-6 -380 -55 -52 c-31 -29 -57 -51
-59 -50 -6 7 -12 144 -18 402 -3 154 -8 294 -11 310 -3 23 3 39 23 63 37 42
116 102 125 94 4 -4 4 -178 1 -387z m-188 -47 c-3 -156 -7 -340 -10 -410 -4
-125 -4 -127 -41 -185 -56 -86 -107 -153 -114 -148 -4 3 -8 43 -9 90 -2 91 -7
114 -28 130 -12 9 -23 71 -38 220 -4 33 -8 61 -10 63 -7 7 -15 -195 -19 -493
-5 -291 -7 -318 -32 -435 -25 -114 -28 -144 -28 -340 -1 -171 3 -231 17 -295
14 -63 17 -122 17 -282 -1 -112 -5 -205 -10 -208 -4 -3 -14 -3 -22 0 -14 6
-58 69 -58 84 0 6 -26 54 -57 108 l-58 98 4 794 c3 762 4 797 23 846 24 62
119 235 128 235 4 0 6 -12 5 -27 -2 -16 -6 -233 -9 -483 -3 -250 -9 -536 -12
-635 -4 -99 -4 -178 -1 -175 2 3 12 158 21 345 9 187 22 408 28 490 6 83 14
245 17 362 6 209 6 212 32 240 14 15 51 63 83 105 52 69 166 188 180 188 3 0
3 -127 1 -282z m-565 -1323 c6 -132 10 -298 10 -370 -1 -119 -2 -128 -15 -104
-39 73 -95 414 -95 583 0 120 42 430 67 491 5 12 11 -56 15 -170 4 -104 12
-298 18 -430z m-147 -589 c21 -43 59 -115 86 -160 81 -136 81 -135 81 -246 0
-55 -4 -100 -8 -100 -19 0 -134 134 -234 275 l-58 80 0 245 1 245 48 -130 c26
-71 64 -166 84 -209z"/>
<path d="M679 4013 c-29 -71 -49 -173 -49 -244 0 -67 -2 -77 -19 -82 -31 -8
-36 -86 -36 -552 l0 -430 33 -154 c33 -150 112 -402 135 -430 7 -8 19 -32 27
-55 l16 -41 69 0 70 0 3 180 c2 171 2 181 -18 197 -19 16 -21 35 -35 440 -8
232 -17 565 -21 738 -4 173 -12 347 -19 385 l-11 70 -67 3 c-65 3 -67 2 -78
-25z m99 -313 c1 -80 4 -203 7 -275 3 -71 12 -362 21 -645 8 -283 16 -522 18
-530 2 -8 7 9 11 38 13 90 26 43 23 -84 -3 -115 -3 -118 -17 -79 -7 22 -19 47
-26 55 -25 28 -103 276 -137 431 l-33 154 0 390 c1 237 5 406 11 430 11 40 11
39 18 -40 11 -122 13 -127 15 -35 5 189 18 316 42 390 l23 75 11 -65 c6 -36
12 -130 13 -210z"/>
<path d="M3000 3634 c-14 -3 -34 -9 -45 -14 -11 -5 -56 -11 -100 -13 -99 -6
-256 -57 -382 -123 -105 -55 -153 -90 -153 -110 0 -8 -10 -14 -23 -14 -13 0
-34 -11 -47 -25 l-23 -24 -1 -393 -1 -393 69 -3 c63 -3 71 -1 97 24 16 15 29
38 29 51 0 17 6 23 23 23 13 0 36 14 53 31 63 66 224 155 369 204 44 15 90 33
102 41 34 21 410 22 426 0 7 -8 37 -22 67 -32 30 -9 62 -23 70 -29 8 -7 44
-27 80 -45 104 -52 177 -109 300 -237 95 -98 122 -133 157 -203 65 -133 118
-251 134 -300 l14 -45 77 -3 c122 -5 114 -37 123 498 l7 445 -62 88 c-130 185
-320 353 -515 453 -95 49 -268 105 -400 129 -87 17 -390 29 -445 19z m333 -81
c10 -6 5 -558 -5 -569 -9 -9 -38 8 -38 22 0 18 -16 18 -23 0 -3 -8 -14 -15
-24 -15 -10 0 -66 -3 -125 -7 l-108 -7 0 74 c0 41 3 172 7 291 l6 217 31 5
c40 6 266 -3 279 -11z m289 -69 c265 -92 508 -279 671 -516 l59 -85 -8 -387
c-4 -213 -10 -382 -15 -375 -5 8 -9 2 -11 -17 -4 -41 -33 -43 -47 -3 -6 18
-11 45 -11 61 0 16 -4 27 -9 24 -5 -3 -14 9 -21 27 -28 69 -130 268 -155 301
-37 48 -223 230 -275 268 -23 17 -82 52 -129 78 -60 32 -86 51 -85 63 2 18
-12 24 -18 7 -2 -6 -16 -6 -40 1 l-38 10 -2 117 -1 117 -7 -105 c-9 -131 -9
-130 -21 -100 -6 14 -13 111 -16 217 -3 108 -10 190 -15 187 -5 -3 -6 -15 -2
-27 6 -20 5 -20 -10 -8 -15 13 -19 13 -26 1 -5 -8 -11 -12 -13 -10 -2 3 -7 53
-10 111 l-6 106 79 -14 c44 -7 126 -29 182 -49z m-712 -234 c-1 -159 -2 -290
-4 -290 -1 0 -45 -15 -98 -34 -159 -56 -308 -138 -372 -205 -17 -17 -33 -31
-38 -31 -4 0 -8 144 -8 319 l0 320 28 19 c110 78 378 186 475 191 16 1 17 -17
17 -289z m-561 -374 c1 -233 0 -240 -21 -263 -12 -13 -26 -23 -31 -23 -7 0 -8
117 -4 331 5 301 7 333 24 351 18 20 18 18 24 -68 4 -49 7 -197 8 -328z"/>
<path d="M2037 3134 c-4 -4 -7 -18 -7 -31 0 -16 -6 -23 -19 -23 -25 0 -76 -62
-98 -118 -14 -39 -15 -60 -4 -200 17 -239 30 -527 37 -842 4 -157 11 -293 16
-303 8 -15 20 -17 76 -15 l67 3 6 325 c19 1016 20 1039 43 1042 19 3 21 9 21
83 l0 80 -65 3 c-36 2 -69 0 -73 -4z m14 -684 c-6 -217 -11 -483 -11 -590 -1
-110 -4 -188 -9 -180 -5 8 -11 139 -15 290 -6 300 -23 697 -35 828 -8 91 0
120 47 182 l27 35 3 -85 c2 -47 -1 -263 -7 -480z"/>
<path d="M3000 2593 c-19 -3 -42 -10 -50 -18 -8 -7 -44 -15 -80 -17 -74 -4
-175 -47 -278 -117 -59 -40 -191 -176 -203 -210 -4 -9 -14 -23 -24 -31 -33
-27 -45 -68 -45 -149 0 -79 0 -80 -27 -83 -28 -3 -28 -4 -28 -73 0 -68 1 -70
26 -73 37 -4 39 -23 39 -378 0 -342 -2 -333 81 -336 40 -1 38 -2 -16 -7 l-60
-6 -3 -140 c-1 -77 1 -174 5 -215 l8 -75 65 -3 c77 -4 90 8 90 80 0 47 0 47
26 38 14 -6 50 -10 79 -10 l54 0 3 -92 3 -92 30 -8 c17 -5 86 -10 155 -11
l125 -2 3 173 2 173 -61 37 c-34 20 -76 49 -94 65 -26 21 -43 27 -82 27 l-50
0 -7 76 c-4 47 -15 89 -28 112 -11 20 -28 62 -38 92 l-17 55 -47 3 c-44 3 -46
5 -46 33 0 26 3 29 35 29 28 0 37 5 50 30 8 16 15 34 15 40 0 26 56 150 95
211 43 66 137 154 198 185 45 23 67 44 67 64 0 15 18 18 137 24 76 4 141 10
146 15 4 4 11 133 14 286 6 263 5 279 -12 291 -18 14 -166 17 -255 7z m189
-72 c12 -8 13 -45 7 -227 -4 -120 -8 -219 -9 -220 -1 -1 -41 -4 -90 -8 l-87
-7 2 228 3 228 40 6 c63 10 119 10 134 0z m-291 -273 l-3 -242 -52 -30 c-148
-87 -257 -234 -302 -403 -7 -24 -15 -43 -20 -43 -4 0 -14 32 -21 70 -9 45 -18
70 -27 70 -7 0 -12 10 -12 23 1 16 2 18 6 5 4 -15 23 -26 23 -14 0 15 -14 36
-24 36 -13 0 -26 -217 -26 -437 0 -99 -6 -118 -27 -90 -6 7 -13 184 -16 446
-6 463 -6 461 42 505 12 11 21 24 21 29 0 20 134 159 189 196 78 53 208 117
244 120 4 1 6 -108 5 -241z m-310 -1079 c21 -37 25 -65 23 -154 l-1 -50 -36
36 c-35 35 -36 39 -47 145 -6 60 -7 123 -3 139 8 29 8 29 26 -25 10 -30 27
-71 38 -91z"/>
<path d="M1737 2543 c-17 -28 -28 -182 -25 -358 l3 -200 75 0 75 0 8 60 c4 33
6 159 5 280 l-3 220 -67 3 c-36 2 -68 -1 -71 -5z"/>
<path d="M3434 2506 c-3 -7 -4 -42 -2 -77 l3 -64 33 -3 34 -3 -7 -248 -8 -247
55 -60 c77 -83 121 -156 148 -249 30 -101 29 -159 -4 -259 -14 -43 -26 -91
-26 -107 0 -21 -5 -29 -17 -29 -10 0 -48 -34 -85 -76 l-68 -75 0 -205 0 -204
26 -10 c42 -16 189 -13 204 5 7 9 29 15 54 15 23 0 69 9 102 19 32 10 85 27
117 36 31 9 61 24 66 33 5 10 10 127 12 262 l4 245 -26 3 -26 3 26 62 c26 62
26 64 29 363 l3 301 -32 87 c-59 164 -191 330 -339 425 -41 26 -75 41 -95 41
-20 0 -35 6 -39 15 -7 20 -134 22 -142 1z m236 -139 c130 -89 254 -249 309
-402 l31 -86 0 -228 c0 -251 -3 -269 -69 -400 -45 -88 -179 -261 -203 -261 -4
0 -8 38 -8 84 0 64 6 101 27 162 22 66 27 97 27 189 1 181 -47 304 -171 439
l-55 59 6 151 c4 83 9 195 12 248 7 111 1 108 94 45z m335 -1334 c-5 -26 -17
-40 -61 -68 -30 -19 -56 -35 -59 -35 -2 0 -33 -18 -67 -40 -75 -48 -88 -49
-88 -11 0 24 10 35 65 71 36 23 98 76 137 117 l73 75 3 -38 c2 -21 1 -53 -3
-71z m-307 -5 c-4 -76 -8 -82 -66 -119 -63 -40 -74 -38 -68 11 3 32 17 54 63
105 32 35 62 64 66 64 4 1 6 -27 5 -61z m300 -135 c-3 -34 -6 -37 -63 -61 -33
-13 -86 -35 -118 -48 -73 -30 -89 -31 -85 -2 2 16 16 27 48 38 25 9 59 24 75
32 17 9 49 25 71 36 23 11 45 25 48 31 15 23 27 10 24 -26z"/>
<path d="M2030 1134 c-6 -14 -10 -54 -10 -89 0 -35 -4 -67 -10 -70 -5 -3 -10
-44 -10 -90 0 -84 0 -85 30 -100 21 -11 52 -15 98 -13 l67 3 3 174 c3 210 3
211 -95 211 -59 0 -64 -2 -73 -26z"/>
<path d="M3160 871 l-45 -6 0 -155 0 -155 130 0 130 0 3 119 c2 92 -1 122 -12
135 -8 9 -16 27 -18 41 -3 24 -6 25 -73 26 -38 1 -90 -1 -115 -5z"/>
</g>
</svg>
